<?xml version="1.0" encoding="UTF-8"?>
<svg width="237px" height="128px" viewBox="0 0 237 128" version="1.1" xmlns="http://www.w3.org/2000/svg" xmlns:xlink="http://www.w3.org/1999/xlink">
    <!-- Generator: Sketch 47.1 (45422) - http://www.bohemiancoding.com/sketch -->
    <title>button-finger</title>
    <desc>Created with Sketch.</desc>
    <defs></defs>
    <g id="Page-1" stroke="none" stroke-width="1" fill="none" fill-rule="evenodd">
        <g id="button-finger">
            <rect id="background" fill="#0A0A0A" x="0" y="0" width="237" height="128" rx="64"></rect>
            <g id="finger" transform="translate(88.000000, 26.000000)" fill-rule="nonzero" fill="#FAFAFA">
                <path d="M23.999884,0.36213 C19.602544,0.36213 15.999994,3.96471053 15.999994,8.36210897 L15.999994,35.8933666 C14.761404,33.2161736 12.538764,30.3223812 9.750083,29.6121831 C5.955953,28.5821858 1.308563,31.6172778 0.250213,35.1434685 C-0.289347,37.1089034 0.062393,39.3454975 1.125203,42.0809903 C6.320593,54.5738575 12.717194,66.5678259 20.499934,75.674602 C20.872004,76.1024009 21.432984,76.3595002 21.999914,76.3621002 L48.999544,76.3621002 C49.425054,76.3621002 49.847944,76.2130006 50.187024,75.9559012 C53.065734,73.8233068 55.385844,70.1907164 57.311934,65.8621278 C59.238014,61.5336392 60.712254,56.5124524 61.468124,51.6121652 C62.223994,46.7118781 62.221034,42.1231902 61.155624,38.0497009 C60.127354,34.1181712 57.353804,30.8462798 53.218234,30.3621811 C52.243404,30.3621811 51.214074,30.4431809 50.343274,30.6433804 C49.830314,29.4168836 49.111284,28.3707864 48.218304,27.737088 C46.722944,26.6759908 45.201004,26.3417917 43.968364,26.3620916 C42.784954,26.3820916 41.705884,26.8128905 40.749654,27.4870887 C40.319364,26.8304904 39.876884,26.1471922 39.312174,25.7370933 C37.829564,24.6603961 36.252274,24.3620969 34.999734,24.3620969 C33.963564,24.3620969 32.960884,24.6494961 31.999774,25.0495951 L31.999774,8.36205897 C31.914374,3.00925304 27.693334,0.351830027 23.999884,0.36213 L23.999884,0.36213 Z M24.9431574,9.36213 C26.962046,9.36213 28.5313389,10.9314498 28.5313389,12.9503563 L28.5313389,31.7886611 C28.5194977,32.6018429 29.1314249,33.3816542 29.9240551,33.5635773 C30.7166853,33.7455004 31.6073818,33.3105176 31.9513222,32.5735856 C32.3476508,31.7496392 33.8405862,30.8916046 34.8106452,30.8916046 C35.2460227,30.8916046 36.0538221,31.0725409 36.5766985,31.4522649 C37.0995838,31.831989 37.5017791,32.2763908 37.5017791,33.5827743 C37.5035732,34.3803473 38.1022419,35.138091 38.8778549,35.3239611 C39.653468,35.509921 40.5307445,35.1058867 40.8937294,34.395687 C41.6230992,32.9366244 42.0139737,32.7006986 42.9120798,32.6857177 C43.1605735,32.6857177 44.0314091,32.8470982 44.594034,33.2463781 C45.1566679,33.645658 45.5751807,34.1045921 45.5751807,35.3768875 C45.5697983,36.0756048 46.0126931,36.757637 46.6534068,37.0364421 C47.2941295,37.3152473 48.0951831,37.1747683 48.6027018,36.6943945 C49.2830026,36.3590747 49.9501884,36.2573485 50.8172833,36.273944 C52.9562968,36.5460213 54.0666106,37.8865288 54.8259511,40.5629869 C55.5922706,43.2641139 55.620806,47.1249557 54.9941402,51.1875456 C54.3674834,55.2502251 53.129025,59.5162674 51.5461328,63.0735453 C50.0615939,66.4097884 48.2437087,69.0151995 46.6404174,70.36213 L24.0180857,70.36213 C17.720596,62.9331559 11.7070867,51.5254668 7.78718263,41.9085717 C6.97112129,39.8082034 6.89758956,38.6021109 7.08637512,37.9278831 C7.7512286,36.192581 9.61153557,35.2129055 11.207166,35.4610314 C13.114668,36.1793943 13.5872823,37.4522279 14.4028861,38.9090836 L17.9630346,46.0574584 C18.3260106,46.7676581 19.203296,47.1716924 19.9789091,46.9857326 C20.7545132,46.7998624 21.3533702,46.0421187 21.3549849,45.2445457 L21.3549849,12.9503563 C21.3549849,10.9314498 22.9242777,9.36213 24.9431574,9.36213 Z" id="Shape"></path>
            </g>
        </g>
    </g>
</svg>