
<svg viewBox="0 0 237 128" version="1.1" xmlns="http://www.w3.org/2000/svg" xmlns:xlink="http://www.w3.org/1999/xlink">
    <!-- Generator: Sketch 47.1 (45422) - http://www.bohemiancoding.com/sketch -->
    <title>button-finger</title>
    <desc>Created with Sketch.</desc>
    <defs></defs>
    <g id="Page-1" stroke="none" stroke-width="1" fill="none" fill-rule="evenodd">
        <g id="button-finger">
            <rect id="background" fill="#0A0A0A" x="0" y="0" width="237" height="128" rx="64"></rect>
            <g id="finger" transform="translate(88.000000, 26.000000)" fill-rule="nonzero" fill="#FAFAFA">
                <path d="M23.999884,0.36213 C19.602544,0.36213 15.999994,3.96472 15.999994,8.36213 L15.999994,35.89346 C14.761404,33.21626 12.538764,30.32246 9.750083,29.61226 C5.955953,28.58226 1.308563,31.61736 0.250213,35.14356 C-0.289347,37.109 0.062393,39.3456 1.125203,42.0811 C6.320593,54.574 12.717194,66.568 20.499934,75.6748 C20.872004,76.1026 21.432984,76.3597 21.999914,76.3623 L48.999544,76.3623 C49.425054,76.3623 49.847944,76.2132 50.187024,75.9561 C53.065734,73.8235 55.385844,70.1909 57.311934,65.8623 C59.238014,61.5338 60.712254,56.5126 61.468124,51.6123 C62.223994,46.712 62.221034,42.1233 61.155624,38.0498 C60.127354,34.11826 57.353804,30.84636 53.218234,30.36226 C52.243404,30.36226 51.214074,30.44326 50.343274,30.64346 C49.830314,29.41696 49.111284,28.37086 48.218304,27.73716 C46.722944,26.67606 45.201004,26.34186 43.968364,26.36216 C42.784954,26.38216 41.705884,26.81296 40.749654,27.48716 C40.319364,26.83056 39.876884,26.14726 39.312174,25.73716 C37.829564,24.66046 36.252274,24.36216 34.999734,24.36216 C33.963564,24.36216 32.960884,24.64956 31.999774,25.04966 L31.999774,8.36208 C31.914374,3.00926 27.693334,0.35183 23.999884,0.36213 L23.999884,0.36213 Z M23.999884,4.36213 C26.250454,4.36213 27.999834,6.11154 27.999834,8.36213 L27.999834,29.36226 C27.986634,30.26876 28.668784,31.13806 29.552374,31.34086 C30.435964,31.54366 31.428874,31.05876 31.812284,30.23726 C32.254094,29.31876 33.918354,28.36226 34.999734,28.36226 C35.485074,28.36226 36.385574,28.56396 36.968454,28.98726 C37.551344,29.41056 37.999694,29.90596 37.999694,31.36226 C38.001694,32.25136 38.669064,33.09606 39.533684,33.30326 C40.398304,33.51056 41.376254,33.06016 41.780894,32.26846 C42.593964,30.64196 43.029694,30.37896 44.030864,30.36226 C44.307874,30.36226 45.278644,30.54216 45.905834,30.98726 C46.533034,31.43236 46.999574,31.94396 46.999574,33.36226 C46.993574,34.14116 47.487294,34.90146 48.201534,35.21226 C48.915784,35.52306 49.808764,35.36646 50.374524,34.83096 C51.132894,34.45716 51.876644,34.34376 52.843244,34.36226 C55.227724,34.66556 56.465454,36.1599 57.311934,39.1435 C58.166194,42.1546 58.198004,46.4585 57.499424,50.9873 C56.800854,55.5162 55.420274,60.2718 53.655734,64.2373 C52.000834,67.9564 49.974334,70.8608 48.187054,72.3623 L22.968654,72.3623 C15.948484,64.0808 9.244883,51.364 4.875143,40.6435 C3.965433,38.3021 3.883463,36.9576 4.093913,36.206 C4.835063,34.27156 6.908853,33.17946 8.687593,33.45606 C10.813994,34.25686 11.340844,35.67576 12.250044,37.2998 L16.218744,45.2685 C16.623374,46.0602 17.601334,46.5106 18.465954,46.3033 C19.330564,46.0961 19.998144,45.2514 19.999944,44.3623 L19.999944,8.36213 C19.999944,6.11154 21.749324,4.36213 23.999884,4.36213 Z" id="Shape"></path>
            </g>
        </g>
    </g>
</svg>
