<?xml version="1.0" encoding="UTF-8"?>
<svg width="200px" height="200px" viewBox="0 0 200 200" version="1.1" xmlns="http://www.w3.org/2000/svg" xmlns:xlink="http://www.w3.org/1999/xlink">
    <!-- Generator: Sketch 47.1 (45422) - http://www.bohemiancoding.com/sketch -->
    <title>checkbox-bad</title>
    <desc>Created with Sketch.</desc>
    <defs></defs>
    <g id="Page-1" stroke="none" stroke-width="1" fill="none" fill-rule="evenodd">
        <g id="checkbox-bad">
            <circle id="box-bad" fill="#FF0013" cx="100" cy="100" r="100"></circle>
            <g id="cross" transform="translate(55.000000, 54.000000)" fill="#FFFFFF">
                <path d="M89.5691222,8.91740614 C89.5691222,13.8157242 87.3483189,18.5883727 82.9066458,23.2354949 L82.2152567,23.9262799 L43.371762,64.8081911 C35.1169544,73.4744461 28.0879025,80.1729001 22.2843956,84.9037543 C16.4808887,89.6346084 12.3849732,92 9.99652634,92 C7.48237172,92 4.36067656,90.8173042 0.631347211,88.4518771 C-3.09798214,86.0864501 10.7635225,68.6902568 14.2725512,64.8081911 C17.7815799,60.9261254 22.2320091,56.5920432 23.9500147,55.2313993 C25.6680204,53.8707554 27.7212158,52.0182142 30.1096627,49.6737201 L70.0216678,10.1733788 C73.3738739,6.82410157 76.3698632,4.29124863 79.0097256,2.57474403 C81.6495879,0.858239427 83.8913422,0 85.7350556,0 C87.1178406,0 88.1025364,0.523316724 88.6891725,1.56996587 C89.2758086,2.61661502 89.5691222,4.37495921 89.5691222,6.84505119 L89.5691222,8.91740614 Z" id="cross-2"></path>
                <path d="M89.5691222,8.91740614 C89.5691222,13.8157242 87.3483189,18.5883727 82.9066458,23.2354949 L82.2152567,23.9262799 L43.371762,64.8081911 C35.1169544,73.4744461 28.0879025,80.1729001 22.2843956,84.9037543 C16.4808887,89.6346084 12.3849732,92 9.99652634,92 C7.48237172,92 4.36067656,90.8173042 0.631347211,88.4518771 C-3.09798214,86.0864501 10.7635225,68.6902568 14.2725512,64.8081911 C17.7815799,60.9261254 22.2320091,56.5920432 23.9500147,55.2313993 C25.6680204,53.8707554 27.7212158,52.0182142 30.1096627,49.6737201 L70.0216678,10.1733788 C73.3738739,6.82410157 76.3698632,4.29124863 79.0097256,2.57474403 C81.6495879,0.858239427 83.8913422,0 85.7350556,0 C87.1178406,0 88.1025364,0.523316724 88.6891725,1.56996587 C89.2758086,2.61661502 89.5691222,4.37495921 89.5691222,6.84505119 L89.5691222,8.91740614 Z" id="cross-1" transform="translate(44.784561, 46.000000) scale(-1, 1) translate(-44.784561, -46.000000) "></path>
            </g>
        </g>
    </g>
</svg>