<?xml version="1.0" encoding="UTF-8"?>
<svg width="200px" height="200px" viewBox="0 0 200 200" version="1.1" xmlns="http://www.w3.org/2000/svg" xmlns:xlink="http://www.w3.org/1999/xlink">
    <!-- Generator: Sketch 47.1 (45422) - http://www.bohemiancoding.com/sketch -->
    <title>checkbox</title>
    <desc>Created with Sketch.</desc>
    <defs></defs>
    <g id="Page-1" stroke="none" stroke-width="1" fill="none" fill-rule="evenodd">
        <g id="checkbox">
            <circle id="box" fill="#00B15B" cx="100" cy="100" r="100"></circle>
            <path d="M150,62.9174061 C150,67.8157242 147.779197,72.5883727 143.337524,77.2354949 L142.646135,77.9262799 L103.80264,118.808191 C95.5478322,127.474446 88.5187803,134.1729 82.7152734,138.903754 C76.9117665,143.634608 72.815851,146 70.4274041,146 C67.9132495,146 64.7915544,144.817304 61.062225,142.451877 C57.3328957,140.08645 54.9235336,137.647794 53.8340666,135.135836 C52.9122099,133.042538 52.0427445,128.604812 51.2256442,121.822526 C50.408544,115.040239 50,107.692872 50,99.7802048 C50,95.4680103 51.8017838,91.4803369 55.4054054,87.8170648 C59.009027,84.1537928 62.9897121,82.3221843 67.3475801,82.3221843 C71.4959353,82.3221843 73.9681502,86.1109974 74.7642992,93.6887372 C74.8481043,94.5679225 74.9109573,95.2168352 74.9528598,95.6354949 C75.6233011,101.454864 76.3984871,105.515802 77.2784412,107.81843 C78.1583953,110.121058 79.3526009,111.272355 80.8610937,111.272355 C81.4896323,111.272355 82.6628869,110.592043 84.3808925,109.231399 C86.0988982,107.870755 88.1520937,106.018214 90.5405405,103.67372 L130.452546,64.1733788 C133.804752,60.8241016 136.800741,58.2912486 139.440603,56.574744 C142.080466,54.8582394 144.32222,54 146.165933,54 C147.548718,54 148.533414,54.5233167 149.12005,55.5699659 C149.706686,56.616615 150,58.3749592 150,60.8450512 L150,62.9174061 Z" id="Path" fill="#FFFFFF"></path>
        </g>
    </g>
</svg>